<?xml version="1.0" encoding="utf-8"?>
<!-- Generator: Adobe Illustrator 28.1.0, SVG Export Plug-In . SVG Version: 6.00 Build 0)  -->
<svg version="1.1" id="Layer_1" xmlns="http://www.w3.org/2000/svg" xmlns:xlink="http://www.w3.org/1999/xlink" x="0px" y="0px"
	 viewBox="0 0 491 271.9" style="enable-background:new 0 0 491 271.9;" xml:space="preserve">
<style type="text/css">
	.st0{fill:#393E46;}
	.st1{fill:#00ADB5;}
</style>
<g>
	<g>
		<g>
			<path class="st0" d="M176.1,266.9c-3.3-3.3-4.9-7.5-4.9-12.6c0-3,0.7-5.7,2.2-8.1c1.4-2.4,3.5-4.3,6.1-5.8
				c2.6-1.4,5.6-2.1,8.9-2.1h8.1v-6c0-2.5-0.7-4.4-2.1-6c-1.4-1.5-3.3-2.3-5.7-2.3c-2.2,0-4,0.7-5.3,2s-2,3.2-2.1,5.5
				c-0.1,0.5-0.2,0.9-0.4,1c-0.2,0.2-0.6,0.3-1.1,0.3h-6.3c-0.4,0-0.8-0.1-1-0.4c-0.3-0.3-0.4-0.7-0.4-1.1c0.4-4.8,2-8.7,5-11.7
				s6.9-4.5,11.7-4.5c5.1,0,9.2,1.6,12.3,4.9c3.1,3.3,4.7,7.5,4.7,12.6v21.8c0,5.1-1.5,9.2-4.6,12.4s-7.2,4.8-12.3,4.8
				C183.6,271.8,179.4,270.1,176.1,266.9z M194.4,260.6c1.4-1.5,2.1-3.5,2.1-6v-7.9h-7.8c-2.5,0-4.4,0.7-5.9,2.2
				c-1.5,1.4-2.2,3.3-2.2,5.4c0,2.6,0.7,4.7,2.2,6.2c1.4,1.6,3.4,2.3,6,2.3C191.2,262.9,193.1,262.1,194.4,260.6z"/>
			<path class="st0" d="M212,269.2v-12.3c0-2.7,0.6-5.3,1.9-7.6c1.3-2.3,3.1-4.2,5.4-5.8c-2.3-1.5-4.1-3.4-5.4-5.6
				c-1.3-2.2-1.9-4.7-1.9-7.5v-12.6c0-0.9,0.5-1.4,1.5-1.4h6.4c0.9,0,1.4,0.5,1.4,1.4v12.9c0,2.5,0.7,4.6,2.1,6.1
				c1.4,1.6,3.2,2.3,5.5,2.3c2.4,0,4.3-0.8,5.6-2.3c1.4-1.6,2.1-3.6,2.1-6.1v-12.9c0-0.9,0.5-1.4,1.4-1.4h6.4c0.9,0,1.4,0.5,1.4,1.4
				v12.6c0,2.8-0.6,5.4-1.8,7.6c-1.2,2.2-3,4.1-5.3,5.5c2.3,1.5,4.1,3.4,5.3,5.7s1.8,4.8,1.8,7.7v12.3c0,1-0.5,1.5-1.4,1.5H238
				c-0.9,0-1.4-0.5-1.4-1.5v-12.6c0-2.6-0.7-4.7-2.1-6.2c-1.4-1.6-3.3-2.3-5.6-2.3s-4.2,0.8-5.5,2.3c-1.4,1.6-2.1,3.6-2.1,6.2v12.6
				c0,1-0.5,1.5-1.4,1.5h-6.4C212.5,270.7,212,270.2,212,269.2z"/>
			<path class="st0" d="M304.8,220.2c3,3.3,4.5,7.5,4.5,12.8v36.3c0,1-0.5,1.5-1.4,1.5h-6.3c-1,0-1.5-0.5-1.5-1.5v-36.6
				c0-2.6-0.6-4.7-1.8-6.2c-1.2-1.5-3-2.3-5.2-2.3s-4,0.8-5.3,2.3s-1.9,3.6-1.9,6.2v36.6c0,1-0.5,1.5-1.4,1.5h-6.3
				c-1,0-1.5-0.5-1.5-1.5v-36.6c0-2.6-0.6-4.7-1.8-6.2c-1.2-1.5-3-2.3-5.2-2.3s-4,0.8-5.3,2.3s-1.9,3.6-1.9,6.2v36.6
				c0,1-0.5,1.5-1.5,1.5h-6.2c-1,0-1.5-0.5-1.5-1.5V233c0-5.2,1.5-9.5,4.5-12.8c3-3.3,7-4.9,11.9-4.9c2.5,0,4.7,0.6,6.7,1.8
				s3.7,2.8,5,4.8c1.3-2,3-3.6,5-4.8s4.3-1.8,6.7-1.8C297.9,215.2,301.9,216.9,304.8,220.2z"/>
			<path class="st0" d="M318.8,208c-1-1-1.6-2.4-1.6-4c0-1.7,0.5-3,1.6-4.1c1-1,2.4-1.6,4-1.6s2.9,0.5,4,1.6s1.6,2.4,1.6,4
				c0,1.4-0.6,2.7-1.7,3.9c-1.1,1.1-2.4,1.7-4,1.7C321.1,209.6,319.8,209.1,318.8,208z M318.1,269.2v-51.3c0-0.9,0.5-1.4,1.5-1.4
				h6.3c1,0,1.5,0.5,1.5,1.4v51.3c0,1-0.5,1.5-1.5,1.5h-6.3C318.6,270.7,318.1,270.2,318.1,269.2z"/>
			<path class="st0" d="M399.7,266.9c-3.2-3.3-4.8-7.5-4.8-12.8v-21.3c0-5.2,1.6-9.5,4.8-12.8c3.2-3.3,7.4-4.9,12.6-4.9
				s9.4,1.6,12.6,4.9c3.2,3.3,4.8,7.5,4.8,12.8v21.3c0,5.2-1.6,9.5-4.8,12.8c-3.2,3.3-7.4,4.9-12.6,4.9S402.9,270.2,399.7,266.9z
				 M418.1,260.8c1.4-1.6,2.2-3.6,2.2-6.2v-21.9c0-2.6-0.7-4.7-2.2-6.2c-1.4-1.6-3.4-2.3-5.9-2.3s-4.4,0.8-5.8,2.3
				c-1.4,1.6-2.1,3.6-2.1,6.2v21.9c0,2.6,0.7,4.7,2.1,6.2c1.4,1.6,3.3,2.3,5.8,2.3C414.7,263.1,416.7,262.3,418.1,260.8z"/>
			<path class="st0" d="M461.8,217.8v5.6c0,0.9-0.5,1.4-1.4,1.4h-10.7v44.3c0,0.5-0.1,0.9-0.4,1.1c-0.3,0.3-0.7,0.4-1.1,0.4h-6.3
				c-1,0-1.5-0.5-1.5-1.5v-44.3h-6.2c-0.9,0-1.4-0.5-1.4-1.4v-5.6c0-0.9,0.5-1.4,1.4-1.4h6.2v-2.3c0-6.1,1.7-11,5.1-14.5
				s7.9-5.3,13.5-5.3c0.9,0,1.4,0.5,1.4,1.5v5.8c0,1-0.5,1.5-1.4,1.5c-3,0-5.2,0.9-6.8,2.7c-1.6,1.8-2.4,4.4-2.4,7.9v2.8h10.7
				C461.3,216.4,461.8,216.9,461.8,217.8z"/>
			<path class="st0" d="M491,263.6v6c0,0.9-0.5,1.4-1.5,1.4h-1.6c-5.4,0-9.6-1.7-12.6-5.1s-4.6-8.1-4.6-14.1v-26.9h-6.1
				c-0.9,0-1.4-0.5-1.4-1.4v-5.6c0-0.9,0.5-1.4,1.4-1.4h6.1v-14c0-1,0.5-1.5,1.5-1.5h6.3c0.9,0,1.4,0.5,1.4,1.5v14h8.4
				c0.9,0,1.4,0.5,1.4,1.4v5.6c0,0.9-0.5,1.4-1.4,1.4h-8.4v27c0,6.9,2.8,10.3,8.4,10.3h1.2C490.5,262.2,491,262.7,491,263.6z"/>
		</g>
	</g>
	<g>
		<path class="st1" d="M348.4,167.1c0.1,0,0.2,0.1,0.2,0.2v-0.1C348.6,167.1,348.5,167.1,348.4,167.1z"/>
		<path class="st1" d="M349.9,168.9L349.9,168.9l0.2,0.2l0,0C350,169,350,168.9,349.9,168.9z"/>
		<path class="st1" d="M364.7,192.7c-0.1-0.1-0.1-0.3-0.2-0.4C364.5,192.4,364.5,192.5,364.7,192.7z"/>
		<path class="st1" d="M426.3,32.5l-0.9-2.2c-0.9-1.6-1.8-3.1-2.6-4.5c-0.9-1.4-1.8-2.8-2.6-4.3c-1-1.5-2-2.9-3-4.3s-2-2.8-3.2-4.1
			c-0.3-0.3-0.7-0.8-1.3-1.7c-0.6-0.8-1.2-1.2-1.8-1.2h-1.3h-20.1c-1.2-0.9-2-1.5-2.4-2c-0.7-0.4-1.4-0.8-1.9-1.2
			c-0.5-0.4-1-0.7-1.4-0.9S383,5.8,383,6c0.1,0.7,0.2,1.4,0.2,2.1c0,0.7,0,1.4,0,2.1H345h-98.4c-0.3,0-0.1,0.7,0.4,2.2
			c0.3,0.6,0.7,1.3,1.1,2c0.7,1.5,1.5,2.9,2.4,4.4s1.8,2.9,2.9,4.4c1.6,2.6,3.6,5.4,6,8.2c0.3,0.3,0.8,0.9,1.4,1.8s1.3,1.3,1.9,1.3
			h23.8c-5,2.5-9.8,5.2-14.5,7.9c-4.6,2.8-9.2,5.8-13.8,9.1c-0.7,0.6-1.5,1.1-2.2,1.7c-0.7,0.5-1.5,1.1-2.2,1.7
			c-0.1,0.1-0.1,0.4,0.1,0.9s0.5,0.9,0.8,1.3c0.3,0.4,0.6,0.8,0.8,1.2s0.3,0.5,0.3,0.3c2.2,3.1,4.3,5.8,6.4,8.2
			c1.2,1.3,2.3,2.6,3.4,4c1.1,1.3,2.2,2.6,3.4,3.8c0.1,0.3,0.7,0.9,1.7,1.8s1.6,1.2,1.9,0.9c4.4-3.4,8.9-6.5,13.6-9.5
			c4.6-2.9,9.4-5.7,14.2-8.4c4.7-2.5,9.6-4.8,14.7-7c5.1-2.1,10.2-4,15.3-5.6c2.2-0.7,4.4-1.3,6.6-1.7s4.5-0.5,6.8-0.3
			c-0.9,4.3-2.6,8.2-5.3,11.7c-2.1,2.6-4.4,5-7.1,7.1c-2.6,2.1-5.4,4-8.2,5.7c-6.6,4.3-13.3,8.5-20,12.7s-13.4,8.4-20.2,12.7
			L260.1,109c-0.1,0.1-0.1,0.4,0.1,0.9s0.5,0.9,0.8,1.3s0.7,1,1.1,1.8c0.9,1.5,1.8,2.9,2.9,4.2c1,1.3,2.1,2.6,3.3,4
			c1.2,1.3,2.3,2.6,3.4,3.9s2.3,2.5,3.6,3.6c0.3,0.3,0.6,0.6,0.8,0.8s0.5,0.5,0.8,0.8c0.4,0.7,1.1,1.1,2,1.1c2.8-0.7,5.6-1.1,8.5-1
			s5.7,0.5,8.5,1.2c4.7,1.2,9.2,2.9,13.5,5.2s8.4,4.7,12.4,7.4c1,0.7,2,1.4,2.9,2s1.8,1.3,2.6,2c0.1,0,0.2,0,0.2,0.1
			s0.1,0.1,0.2,0.1c0.3,0.1,0.5,0.3,0.7,0.4c0.1,0.1,0.4,0.3,0.7,0.4c0.4,0.4,0.9,0.8,1.3,1.2s1,0.8,1.5,1.2
			c0.7,0.7,1.5,1.4,2.4,2.1s1.8,1.4,2.6,2.1c0.6,0.4,1.4,1.2,2.4,2.2c0.3,0.1,0.5,0.3,0.6,0.4c0,0.1,0.1,0.1,0.2,0.2
			c-0.1,0-0.2-0.1-0.3-0.2l0.7,0.7v-0.2l0.2,0.2c0.7,0.7,1.5,1.5,2.4,2.3s1.7,1.6,2.4,2.3c0,0.1,0.1,0.4,0.4,0.7s0.6,0.6,0.9,0.9
			c0.3,0.3,0.6,0.6,0.9,0.9c0.1,0.3,0.3,0.5,0.4,0.6c0,0,0.1,0,0.1,0.1c0.1,0.1,0.1,0.2,0.1,0.3h0.2v0.1l0,0l0,0l0,0l0,0
			c0.1,0,0.1,0.1,0.1,0.2c0.2,0.2,0.3,0.3,0.3,0.3l0,0l0.1,0.1l0.2,0.2c0,0.1,0,0.2,0.1,0.2s0.1,0.1,0.1,0.2
			c0.1,0.1,0.1,0.1,0.2,0.2l-0.2-0.4c0.1,0.1,0.1,0.1,0.2,0.2v0.1c0,0.1,0.1,0.2,0.2,0.3s0.2,0.2,0.2,0.2c0.1,0.1,0.1,0.2,0.3,0.3
			l0,0c-0.1-0.2-0.3-0.3-0.4-0.5c0.2,0.2,0.3,0.4,0.5,0.5c0,0.1,0,0.1,0.1,0.1l0,0l0.1,0.1v0.1c0.2,0.2,0.4,0.4,0.6,0.7
			c-0.1-0.1-0.1-0.2-0.2-0.3c0,0,0,0.1,0.1,0.1c0.3,0.3,0.5,0.6,0.6,0.8l0,0c0.3,0.4,0.5,0.7,0.8,0.9c0.3,0.6,0.5,1,0.7,1.1
			c0.3,0.4,0.6,0.9,1,1.4s0.7,1,1,1.4c0.3,0.6,0.6,1,0.9,1.3c0.4,1,1,2,1.8,2.9c0.6,1,1.1,2,1.7,3c0.5,1,1.1,1.9,1.9,3
			c0.3,0.6,0.6,1.1,0.9,1.7c0.3,0.5,0.6,1.1,0.9,1.7c0.1,0.3,0.3,0.6,0.4,0.9c0.1,0.3,0.3,0.6,0.4,0.9c0.1,0.1,0.2,0.3,0.2,0.3
			c0,0.1,0.1,0.2,0.2,0.3c0,0.1,0,0.3,0.1,0.3c0.1,0.1,0.1,0.2,0.1,0.3l0,0c0.5,1.1,1.1,2.3,1.6,3.6c0.3,0.6,0.6,1.2,0.9,1.8
			s0.6,1.2,0.9,1.8c2.1,5.6,3.3,11,3.8,16.1c0.3,4.7-0.4,9.3-2,13.8s-4.3,8.2-8.2,11.1c-0.1,0.1-0.1,0.4,0,0.9
			c0.1,0.4,0.4,0.9,0.7,1.3c0.3,0.4,0.7,1,1.3,1.8c0.9,1.5,1.8,2.9,2.9,4.2c1,1.3,2.1,2.6,3.3,4c1.2,1.3,2.3,2.6,3.4,4
			c1.1,1.3,2.3,2.6,3.6,3.8c0.3,0.3,0.9,0.8,1.8,1.7c0.9,0.8,1.5,1.1,1.8,0.8c2.5-1.9,4.5-4.2,6-6.7c1.5-2.6,2.5-5.3,3.2-8.3
			c0.7-2.9,1-6,0.9-9c-0.1-3.1-0.4-6.1-1-9c-0.7-3.7-1.9-7.2-3.4-10.5s-3.1-6.7-4.7-10c-3.4-6.3-7-12.4-10.8-18.1
			c-5.2-7.9-10.8-15.6-16.9-22.8c-6.1-7.3-12.5-14.3-19.1-21.1c-4.9-4.9-9.9-9.5-15.2-13.9c-5.3-4.4-10.8-8.5-16.6-12.4
			c-1.2-1-2.4-1.8-3.8-2.4c3.7-2.4,7.4-4.7,11-7c3.7-2.3,7.4-4.6,11-7c3.4-2.2,6.8-4.4,10.2-6.5c3.4-2.1,6.8-4.2,10.2-6.3
			c1.9-1.2,3.8-2.4,5.6-3.8c1.8-1.3,3.6-2.7,5.2-4.2c0.3,0.3,0.6,0.6,1,0.8c0.4,0.2,0.7,0.4,1,0.6c2.9,1.8,6.1,3.1,9.6,3.9
			s7,1.1,10.5,1s7-0.7,10.3-1.8l0,0c-0.2,2.6-0.4,5.2-0.8,7.7c-0.3,1.9-0.7,3.9-1.2,6s-1.2,4-2.2,5.8s-2.2,3.4-3.6,4.7
			c-1.5,1.3-3.3,2.2-5.5,2.6c-0.1,0-0.1,0.2,0.2,0.7c0.3,0.4,0.6,0.9,0.9,1.3s0.7,1,1.3,1.8c1.2,1.3,2.4,2.6,3.5,3.8
			c1.2,1.2,2.4,2.4,3.5,3.5c2.1,2.2,4.3,4.3,6.8,6.2l16.6,17.9l0.9-0.9l-12.8-14.1h0.2c3.1-0.6,5.5-2.1,7.2-4.5s3-5,3.9-7.8
			c1.2-3.8,1.8-7.7,2-11.6c0.1-3.9,0.2-7.8,0.2-11.6c0-3.4-0.1-6.8-0.3-10.4c-0.2-3.5-0.4-7-0.6-10.4c-0.1-3.5-0.2-7.1-0.1-10.6
			s0.1-7.1,0.1-10.6c-0.1-4-0.2-7.9-0.1-11.8s0-7.8-0.1-11.8h21.2h1.1C427,34.4,426.9,33.8,426.3,32.5z M383.5,55.2
			c-0.5-0.4-0.8-0.5-0.9-0.3c-2.4,3.2-5.3,5.8-8.8,7.8s-7.3,3.4-11.3,4.3c0.3-1,0.4-2,0.4-3c0-1,0-1.9,0-3c-0.1-3.2-1.2-6.5-3.1-9.7
			c-1.6-2.8-3.5-5.4-5.5-7.9c-2.1-2.5-4.2-5-6.4-7.5c-0.3-0.3-0.5-0.6-0.7-0.8c-0.1-0.2-0.4-0.5-0.7-0.8h14.6h22.3v20.1
			C383.5,54.8,383.5,55,383.5,55.2z"/>
		<path class="st1" d="M351.4,170.6c0.3,0.4,0.4,0.6,0.4,0.6c0-0.1-0.1-0.1-0.1-0.2C351.6,170.9,351.5,170.8,351.4,170.6z"/>
	</g>
	<path class="st1" d="M257.2,44.5c-0.2-0.7-0.5-1.5-0.9-2.3s-0.8-1.9-1.2-3.3c-3.1-5.2-6-9.9-8.8-14.1c-1.4-2.3-2.9-4.6-4.4-6.7
		s-3.2-4.3-5.1-6.7c-0.5-0.5-1.2-1.3-2.1-2.6c-0.9-1.3-2-1.9-3.2-1.9h-8.1h-32.1c-1.9-1.4-3.2-2.5-3.9-3.2c-1.2-0.7-2.2-1.3-3-1.9
		s-1.6-1.1-2.3-1.4C181.4,0,181-0.1,181,0.1c0.2,1.2,0.4,2.3,0.4,3.3c0,1.1,0,2.2,0,3.3h-61H0.2C-0.2,6.8,0,8,0.9,10.4
		c0.5,0.9,1.1,2,1.8,3.2c1.2,2.4,2.5,4.7,3.9,7c1.4,2.4,2.9,4.7,4.6,7c2.6,4.2,5.8,8.6,9.5,13c0.5,0.5,1.2,1.4,2.3,2.8
		s2.1,2.1,3,2.1h120.2h35.6v25c-4-0.2-7.7,0.4-11.1,1.9c-3.4,1.5-6.8,3.3-10,5.5c-1.9,1.2-3.7,2.5-5.5,4.1c-1.8,1.5-3.6,3.1-5.5,4.8
		c-1.4-1.6-2.8-3.2-4.2-4.8c-1.4-1.5-2.8-3-4.2-4.4c-1.6-1.6-3.3-3.2-4.9-4.6c-1.6-1.4-3.4-2.7-5.3-3.9c-2.6-1.6-5.3-2.9-8.3-3.9
		c-2.9-0.9-5.9-1.6-9-2.1c-3.3-0.7-6.5-1.2-9.7-1.4s-6.4-0.5-9.7-0.7c-3.1,0-6,0.1-8.8,0.4c-2.8,0.2-5.6,0.6-8.5,1.1
		c-3.3,0.5-6.3,1.2-9.2,2.3c-2.8,1.1-5.6,2.2-8.5,3.3C45.1,74,34.1,83.3,26.3,96c-4,6.8-6.7,14-8.1,21.5s-1.9,15.2-1.4,22.9
		c0.5,5.2,1.4,10.1,2.8,14.8s3.1,9.4,4.9,14.1c2.1,4.7,4.3,9.4,6.5,14.1c2.2,4.7,4.5,9.4,6.9,14.1c4.5,8.5,9.6,16.5,15.3,24.1
		c5.8,7.6,11.8,15,18.2,22c4.2,4.7,8.8,9,13.6,13c4.8,4,10.3,7.2,16.4,9.5c9.2,3.3,18.3,4.2,27.5,2.8l-1.4-3.2
		c-0.7-0.9-1.3-2-1.8-3.2c-3.3-4.7-6.6-9-9.9-13c-1.9-2.1-3.7-4.2-5.5-6.3s-3.6-4.1-5.5-6c-0.5-0.5-1.3-1.4-2.5-2.6
		c-1.2-1.3-2.2-1.8-3.2-1.6c-6.8,0.7-13.6,0.4-20.4-1.1c-2.4-0.7-4.5-1.4-6.5-2.1c-2-0.7-4.1-1.6-6.2-2.8c-0.2-0.2-0.5-0.4-0.7-0.5
		s-0.5-0.3-0.7-0.5c-0.5-0.5-0.7-0.9-0.7-1.4l-0.7-1.4c-0.5-0.7-0.9-1.8-1.4-3.2c-0.5-1.2-1-2.3-1.6-3.3c-0.6-1.1-1.1-2.2-1.6-3.3
		c-1.2-2.1-2.2-4.2-3.2-6.3c-0.9-2.1-1.9-4.3-2.8-6.7c-1.9-4.5-3.4-9-4.6-13.6c-1.2-4.6-1.9-9.2-2.1-13.9
		c-0.5-7.5,0.2-14.9,1.9-22.2c1.8-7.3,4.6-14.1,8.6-20.4c4-6.1,9-11.5,15.2-16c6.1-4.6,12.6-8.3,19.4-11.1c4.2-1.6,8.5-2.9,12.7-3.9
		c4.2-0.9,8.6-1.5,13-1.8c7-0.2,14.1,0.1,21.1,1.1c0,0.2-0.1,0.5-0.4,0.7L125.8,113c-3.3,4-6.3,8-9.2,12c-2.8,4-5.4,8.2-7.8,12.7
		c-1.9,3.8-3.4,8.2-4.6,13.4c-0.2,0.9,0.1,2.1,1.1,3.3c0.9,1.3,1.6,2.3,2.1,3c1.4,2.4,2.9,4.6,4.6,6.7c1.6,2.1,3.4,4.2,5.3,6.3
		c0.2,0.2,1.1,1.4,2.6,3.3c1.5,2,3.2,4.1,5.1,6.2c1.9,2.1,3.6,3.9,5.3,5.5c1.6,1.5,2.7,2.1,3.2,1.6c3.3-4,6.3-8,9.2-12.2
		c2.8-4.1,5.5-8.4,8.1-12.9c1.4-2.1,2.8-4.3,4.1-6.5s2.6-4.4,4.1-6.5s2.8-4.2,4.1-6.3s2.5-4.3,3.7-6.7c0-0.2,0.1-0.5,0.4-0.7
		c1.9-2.3,3.9-4.6,6-6.9c2.1-2.2,4.3-4.4,6.7-6.5c1.2-1,2.4-2,3.7-3c0,2.2,0,4.5,0,6.7c-0.1,6.5-0.6,12.7-1.6,18.9
		c-0.5,3.1-1.1,6.2-1.9,9.5c-0.8,3.3-2,6.4-3.5,9.3c-1.5,2.9-3.5,5.5-5.8,7.6s-5.3,3.5-8.8,4.2c-0.2,0-0.1,0.4,0.4,1.1
		c0.5,0.7,0.9,1.4,1.4,2.1c0.5,0.7,1.2,1.6,2.1,2.8c1.9,2.1,3.8,4.1,5.6,6c1.9,1.9,3.8,3.8,5.6,5.6c3.3,3.5,6.9,6.8,10.9,9.9
		l26.4,28.5l1.4-1.4L195.5,207h0.4c4.9-0.9,8.8-3.3,11.5-7.2s4.8-8,6.2-12.5c1.9-6.1,2.9-12.3,3.2-18.5c0.2-6.2,0.4-12.4,0.4-18.5
		c0-5.4-0.2-10.9-0.5-16.6s-0.6-11.2-0.9-16.6c-0.2-5.6-0.3-11.3-0.2-16.9s0.2-11.3,0.2-16.9c-0.2-6.3-0.3-12.6-0.2-18.9
		c0.1-6.2,0.1-12.5-0.2-18.9h33.8h8.1C257.4,45.6,257.4,45.3,257.2,44.5z M138.9,79.1c-0.1-0.2,0.1,0,0.5,0.7
		C139.2,79.6,139,79.3,138.9,79.1z"/>
</g>
</svg>
