<?xml version="1.0" encoding="utf-8"?>
<!-- Generator: Adobe Illustrator 28.1.0, SVG Export Plug-In . SVG Version: 6.00 Build 0)  -->
<svg version="1.1" id="Layer_1" xmlns="http://www.w3.org/2000/svg" xmlns:xlink="http://www.w3.org/1999/xlink" x="0px" y="0px"
	 viewBox="0 0 108.4 60" style="enable-background:new 0 0 108.4 60;" xml:space="preserve">
<style type="text/css">
	.st0{fill:#393E46;}
	.st1{fill:#00ADB5;}
</style>
<g>
	<g>
		<g>
			<path class="st0" d="M38.9,58.9c-0.7-0.7-1.1-1.7-1.1-2.8c0-0.7,0.2-1.3,0.5-1.8c0.3-0.5,0.8-0.9,1.3-1.3c0.6-0.3,1.2-0.5,2-0.5
				h1.8v-1.3c0-0.6-0.2-1-0.5-1.3c-0.3-0.3-0.7-0.5-1.3-0.5c-0.5,0-0.9,0.2-1.2,0.4S40,50.6,40,51.1c0,0.1,0,0.2-0.1,0.2
				c0,0-0.1,0.1-0.2,0.1h-1.4c-0.1,0-0.2,0-0.2-0.1C38,51.2,38,51.1,38,51.1c0.1-1.1,0.4-1.9,1.1-2.6c0.7-0.7,1.5-1,2.6-1
				c1.1,0,2,0.4,2.7,1.1c0.7,0.7,1,1.7,1,2.8v4.8c0,1.1-0.3,2-1,2.7c-0.7,0.7-1.6,1.1-2.7,1.1C40.5,60,39.6,59.6,38.9,58.9z
				 M42.9,57.5c0.3-0.3,0.5-0.8,0.5-1.3v-1.7h-1.7c-0.6,0-1,0.2-1.3,0.5c-0.3,0.3-0.5,0.7-0.5,1.2c0,0.6,0.2,1,0.5,1.4
				c0.3,0.4,0.8,0.5,1.3,0.5C42.2,58,42.6,57.9,42.9,57.5z"/>
			<path class="st0" d="M46.8,59.4v-2.7c0-0.6,0.1-1.2,0.4-1.7c0.3-0.5,0.7-0.9,1.2-1.3c-0.5-0.3-0.9-0.8-1.2-1.2
				c-0.3-0.5-0.4-1-0.4-1.7v-2.8c0-0.2,0.1-0.3,0.3-0.3h1.4c0.2,0,0.3,0.1,0.3,0.3v2.8c0,0.6,0.2,1,0.5,1.3c0.3,0.4,0.7,0.5,1.2,0.5
				c0.5,0,0.9-0.2,1.2-0.5c0.3-0.4,0.5-0.8,0.5-1.3v-2.8c0-0.2,0.1-0.3,0.3-0.3H54c0.2,0,0.3,0.1,0.3,0.3v2.8c0,0.6-0.1,1.2-0.4,1.7
				c-0.3,0.5-0.7,0.9-1.2,1.2c0.5,0.3,0.9,0.8,1.2,1.3s0.4,1.1,0.4,1.7v2.7c0,0.2-0.1,0.3-0.3,0.3h-1.4c-0.2,0-0.3-0.1-0.3-0.3v-2.8
				c0-0.6-0.2-1-0.5-1.4c-0.3-0.4-0.7-0.5-1.2-0.5s-0.9,0.2-1.2,0.5c-0.3,0.4-0.5,0.8-0.5,1.4v2.8c0,0.2-0.1,0.3-0.3,0.3h-1.4
				C46.9,59.8,46.8,59.6,46.8,59.4z"/>
			<path class="st0" d="M67.3,48.6c0.7,0.7,1,1.7,1,2.8v8c0,0.2-0.1,0.3-0.3,0.3h-1.4c-0.2,0-0.3-0.1-0.3-0.3v-8.1
				c0-0.6-0.1-1-0.4-1.4c-0.3-0.3-0.7-0.5-1.1-0.5c-0.5,0-0.9,0.2-1.2,0.5c-0.3,0.3-0.4,0.8-0.4,1.4v8.1c0,0.2-0.1,0.3-0.3,0.3h-1.4
				c-0.2,0-0.3-0.1-0.3-0.3v-8.1c0-0.6-0.1-1-0.4-1.4c-0.3-0.3-0.7-0.5-1.1-0.5c-0.5,0-0.9,0.2-1.2,0.5c-0.3,0.3-0.4,0.8-0.4,1.4
				v8.1c0,0.2-0.1,0.3-0.3,0.3h-1.4c-0.2,0-0.3-0.1-0.3-0.3v-8c0-1.1,0.3-2.1,1-2.8s1.5-1.1,2.6-1.1c0.6,0,1,0.1,1.5,0.4
				s0.8,0.6,1.1,1.1c0.3-0.4,0.7-0.8,1.1-1.1s0.9-0.4,1.5-0.4C65.8,47.5,66.6,47.9,67.3,48.6z"/>
			<path class="st0" d="M70.4,45.9C70.2,45.7,70,45.4,70,45c0-0.4,0.1-0.7,0.4-0.9c0.2-0.2,0.5-0.4,0.9-0.4c0.4,0,0.6,0.1,0.9,0.4
				c0.2,0.2,0.4,0.5,0.4,0.9c0,0.3-0.1,0.6-0.4,0.9c-0.2,0.2-0.5,0.4-0.9,0.4C70.9,46.3,70.6,46.2,70.4,45.9z M70.2,59.4V48.1
				c0-0.2,0.1-0.3,0.3-0.3h1.4c0.2,0,0.3,0.1,0.3,0.3v11.3c0,0.2-0.1,0.3-0.3,0.3h-1.4C70.3,59.8,70.2,59.6,70.2,59.4z"/>
			<path class="st0" d="M88.2,58.9c-0.7-0.7-1.1-1.7-1.1-2.8v-4.7c0-1.1,0.4-2.1,1.1-2.8s1.6-1.1,2.8-1.1c1.1,0,2.1,0.4,2.8,1.1
				c0.7,0.7,1.1,1.7,1.1,2.8v4.7c0,1.1-0.4,2.1-1.1,2.8C93.1,59.6,92.2,60,91,60C89.9,60,88.9,59.6,88.2,58.9z M92.3,57.6
				c0.3-0.4,0.5-0.8,0.5-1.4v-4.8c0-0.6-0.2-1-0.5-1.4c-0.3-0.4-0.8-0.5-1.3-0.5c-0.6,0-1,0.2-1.3,0.5c-0.3,0.4-0.5,0.8-0.5,1.4v4.8
				c0,0.6,0.2,1,0.5,1.4c0.3,0.4,0.7,0.5,1.3,0.5C91.5,58.1,92,57.9,92.3,57.6z"/>
			<path class="st0" d="M101.9,48.1v1.2c0,0.2-0.1,0.3-0.3,0.3h-2.4v9.8c0,0.1,0,0.2-0.1,0.2c-0.1,0.1-0.2,0.1-0.2,0.1h-1.4
				c-0.2,0-0.3-0.1-0.3-0.3v-9.8h-1.4c-0.2,0-0.3-0.1-0.3-0.3v-1.2c0-0.2,0.1-0.3,0.3-0.3h1.4v-0.5c0-1.3,0.4-2.4,1.1-3.2
				s1.7-1.2,3-1.2c0.2,0,0.3,0.1,0.3,0.3v1.3c0,0.2-0.1,0.3-0.3,0.3c-0.7,0-1.1,0.2-1.5,0.6c-0.4,0.4-0.5,1-0.5,1.7v0.6h2.4
				C101.8,47.8,101.9,47.9,101.9,48.1z"/>
			<path class="st0" d="M108.4,58.2v1.3c0,0.2-0.1,0.3-0.3,0.3h-0.4c-1.2,0-2.1-0.4-2.8-1.1c-0.7-0.8-1-1.8-1-3.1v-5.9h-1.3
				c-0.2,0-0.3-0.1-0.3-0.3v-1.2c0-0.2,0.1-0.3,0.3-0.3h1.3v-3.1c0-0.2,0.1-0.3,0.3-0.3h1.4c0.2,0,0.3,0.1,0.3,0.3v3.1h1.9
				c0.2,0,0.3,0.1,0.3,0.3v1.2c0,0.2-0.1,0.3-0.3,0.3h-1.9v6c0,1.5,0.6,2.3,1.9,2.3h0.3C108.3,57.9,108.4,58,108.4,58.2z"/>
		</g>
	</g>
	<g>
		<path class="st1" d="M76.9,36.9C76.9,36.9,77,36.9,76.9,36.9L76.9,36.9C77,36.9,76.9,36.9,76.9,36.9z"/>
		<path class="st1" d="M77.2,37.3L77.2,37.3L77.2,37.3L77.2,37.3C77.3,37.3,77.3,37.3,77.2,37.3z"/>
		<path class="st1" d="M80.5,42.5C80.5,42.5,80.5,42.5,80.5,42.5C80.5,42.5,80.5,42.5,80.5,42.5z"/>
		<path class="st1" d="M94.1,7.2l-0.2-0.5c-0.2-0.4-0.4-0.7-0.6-1c-0.2-0.3-0.4-0.6-0.6-0.9c-0.2-0.3-0.4-0.6-0.7-0.9
			c-0.2-0.3-0.4-0.6-0.7-0.9c-0.1-0.1-0.2-0.2-0.3-0.4c-0.1-0.2-0.3-0.3-0.4-0.3h-0.3H86c-0.3-0.2-0.4-0.3-0.5-0.4
			c-0.2-0.1-0.3-0.2-0.4-0.3c-0.1-0.1-0.2-0.2-0.3-0.2c-0.1,0-0.2-0.1-0.2,0c0,0.2,0,0.3,0,0.5s0,0.3,0,0.5h-8.4H54.4
			c-0.1,0,0,0.2,0.1,0.5c0.1,0.1,0.2,0.3,0.2,0.4c0.2,0.3,0.3,0.6,0.5,1s0.4,0.6,0.6,1c0.4,0.6,0.8,1.2,1.3,1.8
			c0.1,0.1,0.2,0.2,0.3,0.4c0.1,0.2,0.3,0.3,0.4,0.3h5.3c-1.1,0.6-2.2,1.1-3.2,1.7c-1,0.6-2,1.3-3,2c-0.2,0.1-0.3,0.2-0.5,0.4
			c-0.2,0.1-0.3,0.2-0.5,0.4c0,0,0,0.1,0,0.2c0,0.1,0.1,0.2,0.2,0.3c0.1,0.1,0.1,0.2,0.2,0.3c0,0.1,0.1,0.1,0.1,0.1
			c0.5,0.7,0.9,1.3,1.4,1.8c0.3,0.3,0.5,0.6,0.8,0.9c0.2,0.3,0.5,0.6,0.8,0.8c0,0.1,0.2,0.2,0.4,0.4c0.2,0.2,0.4,0.3,0.4,0.2
			c1-0.8,2-1.4,3-2.1c1-0.6,2.1-1.3,3.1-1.9c1-0.6,2.1-1.1,3.2-1.5c1.1-0.5,2.3-0.9,3.4-1.2c0.5-0.2,1-0.3,1.5-0.4
			c0.5-0.1,1-0.1,1.5-0.1c-0.2,0.9-0.6,1.8-1.2,2.6c-0.5,0.6-1,1.1-1.6,1.6c-0.6,0.5-1.2,0.9-1.8,1.3c-1.5,0.9-2.9,1.9-4.4,2.8
			c-1.5,0.9-3,1.9-4.5,2.8l-5.1,3.2c0,0,0,0.1,0,0.2c0,0.1,0.1,0.2,0.2,0.3c0.1,0.1,0.2,0.2,0.2,0.4c0.2,0.3,0.4,0.6,0.6,0.9
			c0.2,0.3,0.5,0.6,0.7,0.9c0.3,0.3,0.5,0.6,0.8,0.9c0.2,0.3,0.5,0.6,0.8,0.8c0.1,0.1,0.1,0.1,0.2,0.2s0.1,0.1,0.2,0.2
			c0.1,0.2,0.2,0.2,0.4,0.2c0.6-0.2,1.2-0.2,1.9-0.2s1.3,0.1,1.9,0.3c1,0.3,2,0.6,3,1.1c0.9,0.5,1.9,1,2.7,1.6
			c0.2,0.2,0.4,0.3,0.6,0.4c0.2,0.1,0.4,0.3,0.6,0.4c0,0,0,0,0,0c0,0,0,0,0,0c0.1,0,0.1,0.1,0.2,0.1c0,0,0.1,0.1,0.2,0.1
			c0.1,0.1,0.2,0.2,0.3,0.3s0.2,0.2,0.3,0.3c0.2,0.2,0.3,0.3,0.5,0.5c0.2,0.2,0.4,0.3,0.6,0.5c0.1,0.1,0.3,0.3,0.5,0.5
			c0.1,0,0.1,0.1,0.1,0.1c0,0,0,0,0,0c0,0,0,0-0.1,0l0.2,0.2v0l0,0c0.2,0.2,0.3,0.3,0.5,0.5c0.2,0.2,0.4,0.4,0.5,0.5
			c0,0,0,0.1,0.1,0.2c0.1,0.1,0.1,0.1,0.2,0.2s0.1,0.1,0.2,0.2c0,0.1,0.1,0.1,0.1,0.1c0,0,0,0,0,0c0,0,0,0,0,0.1h0v0l0,0l0,0l0,0
			l0,0c0,0,0,0,0,0C77,37,77,37,77,37l0,0l0,0l0,0c0,0,0,0,0,0c0,0,0,0,0,0c0,0,0,0,0,0l0-0.1c0,0,0,0,0,0v0c0,0,0,0,0,0.1
			c0,0,0,0,0,0c0,0,0,0,0.1,0.1l0,0c0,0-0.1-0.1-0.1-0.1c0,0,0.1,0.1,0.1,0.1c0,0,0,0,0,0l0,0l0,0v0c0,0,0.1,0.1,0.1,0.2
			c0,0,0,0,0-0.1c0,0,0,0,0,0c0.1,0.1,0.1,0.1,0.1,0.2l0,0c0.1,0.1,0.1,0.2,0.2,0.2c0.1,0.1,0.1,0.2,0.2,0.2
			c0.1,0.1,0.1,0.2,0.2,0.3c0.1,0.1,0.2,0.2,0.2,0.3c0.1,0.1,0.1,0.2,0.2,0.3c0.1,0.2,0.2,0.4,0.4,0.6c0.1,0.2,0.2,0.4,0.4,0.7
			c0.1,0.2,0.2,0.4,0.4,0.7c0.1,0.1,0.1,0.2,0.2,0.4c0.1,0.1,0.1,0.2,0.2,0.4c0,0.1,0.1,0.1,0.1,0.2c0,0.1,0.1,0.1,0.1,0.2
			c0,0,0,0.1,0,0.1c0,0,0,0,0,0.1c0,0,0,0.1,0,0.1c0,0,0,0,0,0.1l0,0c0.1,0.2,0.2,0.5,0.4,0.8c0.1,0.1,0.1,0.3,0.2,0.4
			c0.1,0.1,0.1,0.3,0.2,0.4c0.5,1.2,0.7,2.4,0.8,3.6c0.1,1-0.1,2.1-0.4,3c-0.4,1-0.9,1.8-1.8,2.5c0,0,0,0.1,0,0.2
			c0,0.1,0.1,0.2,0.2,0.3c0.1,0.1,0.2,0.2,0.3,0.4c0.2,0.3,0.4,0.6,0.6,0.9c0.2,0.3,0.5,0.6,0.7,0.9c0.3,0.3,0.5,0.6,0.8,0.9
			c0.2,0.3,0.5,0.6,0.8,0.8c0.1,0.1,0.2,0.2,0.4,0.4c0.2,0.2,0.3,0.2,0.4,0.2c0.6-0.4,1-0.9,1.3-1.5c0.3-0.6,0.6-1.2,0.7-1.8
			c0.2-0.6,0.2-1.3,0.2-2c0-0.7-0.1-1.3-0.2-2c-0.2-0.8-0.4-1.6-0.8-2.3c-0.3-0.7-0.7-1.5-1-2.2c-0.8-1.4-1.5-2.7-2.4-4
			c-1.1-1.7-2.4-3.4-3.7-5c-1.3-1.6-2.8-3.2-4.2-4.7c-1.1-1.1-2.2-2.1-3.4-3.1c-1.2-1-2.4-1.9-3.7-2.7c-0.3-0.2-0.5-0.4-0.8-0.5
			c0.8-0.5,1.6-1,2.4-1.5c0.8-0.5,1.6-1,2.4-1.5c0.8-0.5,1.5-1,2.3-1.4c0.8-0.5,1.5-0.9,2.3-1.4c0.4-0.3,0.8-0.5,1.2-0.8
			c0.4-0.3,0.8-0.6,1.1-0.9c0.1,0.1,0.1,0.1,0.2,0.2s0.2,0.1,0.2,0.1c0.6,0.4,1.3,0.7,2.1,0.9c0.8,0.2,1.5,0.2,2.3,0.2
			s1.5-0.2,2.3-0.4l0,0c0,0.6-0.1,1.1-0.2,1.7c-0.1,0.4-0.2,0.9-0.3,1.3c-0.1,0.5-0.3,0.9-0.5,1.3c-0.2,0.4-0.5,0.8-0.8,1
			c-0.3,0.3-0.7,0.5-1.2,0.6c0,0,0,0,0,0.2c0.1,0.1,0.1,0.2,0.2,0.3s0.2,0.2,0.3,0.4c0.3,0.3,0.5,0.6,0.8,0.8
			c0.3,0.3,0.5,0.5,0.8,0.8c0.5,0.5,0.9,0.9,1.5,1.4l3.7,4l0.2-0.2l-2.8-3.1h0c0.7-0.1,1.2-0.5,1.6-1c0.4-0.5,0.7-1.1,0.9-1.7
			c0.3-0.8,0.4-1.7,0.4-2.6c0-0.9,0-1.7,0-2.6c0-0.8,0-1.5-0.1-2.3c0-0.8-0.1-1.5-0.1-2.3c0-0.8,0-1.6,0-2.3c0-0.8,0-1.6,0-2.3
			c0-0.9,0-1.7,0-2.6s0-1.7,0-2.6H94h0.2C94.3,7.6,94.2,7.5,94.1,7.2z M84.7,12.2c-0.1-0.1-0.2-0.1-0.2-0.1
			c-0.5,0.7-1.2,1.3-1.9,1.7s-1.6,0.8-2.5,0.9c0.1-0.2,0.1-0.4,0.1-0.7s0-0.4,0-0.7c0-0.7-0.3-1.4-0.7-2.1c-0.4-0.6-0.8-1.2-1.2-1.7
			c-0.5-0.6-0.9-1.1-1.4-1.7c-0.1-0.1-0.1-0.1-0.2-0.2c0,0-0.1-0.1-0.2-0.2h3.2h4.9V12C84.7,12.1,84.7,12.1,84.7,12.2z"/>
		<path class="st1" d="M77.6,37.7c0.1,0.1,0.1,0.1,0.1,0.1C77.7,37.8,77.6,37.8,77.6,37.7C77.6,37.7,77.6,37.7,77.6,37.7z"/>
	</g>
	<path class="st1" d="M56.8,9.8c0-0.2-0.1-0.3-0.2-0.5c-0.1-0.2-0.2-0.4-0.3-0.7c-0.7-1.1-1.3-2.2-1.9-3.1c-0.3-0.5-0.6-1-1-1.5
		c-0.3-0.5-0.7-0.9-1.1-1.5c-0.1-0.1-0.3-0.3-0.5-0.6s-0.4-0.4-0.7-0.4h-1.8h-7.1c-0.4-0.3-0.7-0.6-0.9-0.7
		c-0.3-0.2-0.5-0.3-0.7-0.4s-0.4-0.2-0.5-0.3C40,0,40,0,40,0C40,0.3,40,0.5,40,0.8c0,0.2,0,0.5,0,0.7H26.6H0C0,1.5,0,1.8,0.2,2.3
		C0.3,2.5,0.4,2.7,0.6,3c0.3,0.5,0.6,1,0.9,1.5c0.3,0.5,0.6,1,1,1.5C3,7,3.8,8,4.6,9c0.1,0.1,0.3,0.3,0.5,0.6S5.5,10,5.7,10h26.5
		h7.9v5.5c-0.9,0-1.7,0.1-2.5,0.4c-0.8,0.3-1.5,0.7-2.2,1.2c-0.4,0.3-0.8,0.6-1.2,0.9c-0.4,0.3-0.8,0.7-1.2,1.1
		c-0.3-0.4-0.6-0.7-0.9-1.1c-0.3-0.3-0.6-0.7-0.9-1c-0.4-0.4-0.7-0.7-1.1-1c-0.4-0.3-0.8-0.6-1.2-0.9c-0.6-0.4-1.2-0.6-1.8-0.9
		c-0.6-0.2-1.3-0.4-2-0.5c-0.7-0.2-1.4-0.3-2.1-0.3s-1.4-0.1-2.1-0.2c-0.7,0-1.3,0-1.9,0.1c-0.6,0-1.2,0.1-1.9,0.2
		c-0.7,0.1-1.4,0.3-2,0.5c-0.6,0.2-1.2,0.5-1.9,0.7c-3.2,1.3-5.6,3.4-7.3,6.2c-0.9,1.5-1.5,3.1-1.8,4.7S3.6,29.3,3.7,31
		c0.1,1.1,0.3,2.2,0.6,3.3c0.3,1,0.7,2.1,1.1,3.1c0.5,1,0.9,2.1,1.4,3.1c0.5,1,1,2.1,1.5,3.1c1,1.9,2.1,3.6,3.4,5.3
		c1.3,1.7,2.6,3.3,4,4.9c0.9,1,1.9,2,3,2.9c1.1,0.9,2.3,1.6,3.6,2.1c2,0.7,4,0.9,6.1,0.6l-0.3-0.7c-0.2-0.2-0.3-0.4-0.4-0.7
		c-0.7-1-1.5-2-2.2-2.9c-0.4-0.5-0.8-0.9-1.2-1.4c-0.4-0.5-0.8-0.9-1.2-1.3c-0.1-0.1-0.3-0.3-0.6-0.6c-0.3-0.3-0.5-0.4-0.7-0.4
		c-1.5,0.2-3,0.1-4.5-0.2c-0.5-0.2-1-0.3-1.4-0.5c-0.4-0.2-0.9-0.4-1.4-0.6c0,0-0.1-0.1-0.2-0.1c0,0-0.1-0.1-0.2-0.1
		c-0.1-0.1-0.2-0.2-0.2-0.3L14,49.3c-0.1-0.2-0.2-0.4-0.3-0.7c-0.1-0.3-0.2-0.5-0.4-0.7c-0.1-0.2-0.2-0.5-0.4-0.7
		c-0.3-0.5-0.5-0.9-0.7-1.4c-0.2-0.5-0.4-0.9-0.6-1.5c-0.4-1-0.8-2-1-3c-0.3-1-0.4-2-0.5-3.1c-0.1-1.7,0-3.3,0.4-4.9
		c0.4-1.6,1-3.1,1.9-4.5c0.9-1.3,2-2.5,3.4-3.5c1.3-1,2.8-1.8,4.3-2.5c0.9-0.4,1.9-0.6,2.8-0.9c0.9-0.2,1.9-0.3,2.9-0.4
		c1.5,0,3.1,0,4.7,0.2c0,0,0,0.1-0.1,0.2l-2.6,3c-0.7,0.9-1.4,1.8-2,2.6c-0.6,0.9-1.2,1.8-1.7,2.8c-0.4,0.8-0.8,1.8-1,3
		c0,0.2,0,0.5,0.2,0.7c0.2,0.3,0.4,0.5,0.5,0.7c0.3,0.5,0.6,1,1,1.5c0.4,0.5,0.8,0.9,1.2,1.4c0,0,0.2,0.3,0.6,0.7
		c0.3,0.4,0.7,0.9,1.1,1.4c0.4,0.5,0.8,0.9,1.2,1.2c0.4,0.3,0.6,0.5,0.7,0.4c0.7-0.9,1.4-1.8,2-2.7c0.6-0.9,1.2-1.9,1.8-2.8
		c0.3-0.5,0.6-0.9,0.9-1.4c0.3-0.5,0.6-1,0.9-1.4c0.3-0.5,0.6-0.9,0.9-1.4c0.3-0.5,0.6-0.9,0.8-1.5c0,0,0-0.1,0.1-0.2
		c0.4-0.5,0.9-1,1.3-1.5c0.5-0.5,0.9-1,1.5-1.4c0.3-0.2,0.5-0.4,0.8-0.7c0,0.5,0,1,0,1.5c0,1.4-0.1,2.8-0.4,4.2
		c-0.1,0.7-0.2,1.4-0.4,2.1c-0.2,0.7-0.4,1.4-0.8,2.1c-0.3,0.6-0.8,1.2-1.3,1.7s-1.2,0.8-1.9,0.9c0,0,0,0.1,0.1,0.2
		c0.1,0.2,0.2,0.3,0.3,0.5c0.1,0.2,0.3,0.4,0.5,0.6c0.4,0.5,0.8,0.9,1.2,1.3c0.4,0.4,0.8,0.8,1.2,1.2c0.7,0.8,1.5,1.5,2.4,2.2
		l5.8,6.3l0.3-0.3l-4.5-5h0.1c1.1-0.2,1.9-0.7,2.5-1.6s1.1-1.8,1.4-2.8c0.4-1.3,0.6-2.7,0.7-4.1c0-1.4,0.1-2.7,0.1-4.1
		c0-1.2,0-2.4-0.1-3.7c-0.1-1.3-0.1-2.5-0.2-3.7c0-1.2-0.1-2.5,0-3.7c0-1.2,0-2.5,0-3.7c0-1.4-0.1-2.8,0-4.2c0-1.4,0-2.8,0-4.2H55
		h1.8C56.8,10.1,56.8,10,56.8,9.8z M30.7,17.5c0,0,0,0,0.1,0.2C30.7,17.6,30.7,17.5,30.7,17.5z"/>
</g>
</svg>
