<svg xmlns="http://www.w3.org/2000/svg" viewBox="0 0 491 271.9"><g fill="#393E46"><path d="M176.1 266.9c-3.3-3.3-4.9-7.5-4.9-12.6 0-3 .7-5.7 2.2-8.1 1.4-2.4 3.5-4.3 6.1-5.8 2.6-1.4 5.6-2.1 8.9-2.1h8.1v-6c0-2.5-.7-4.4-2.1-6-1.4-1.5-3.3-2.3-5.7-2.3-2.2 0-4 .7-5.3 2-1.3 1.3-2 3.2-2.1 5.5-.1.5-.2.9-.4 1-.2.2-.6.3-1.1.3h-6.3c-.4 0-.8-.1-1-.4-.3-.3-.4-.7-.4-1.1.4-4.8 2-8.7 5-11.7s6.9-4.5 11.7-4.5c5.1 0 9.2 1.6 12.3 4.9 3.1 3.3 4.7 7.5 4.7 12.6v21.8c0 5.1-1.5 9.2-4.6 12.4-3.1 3.2-7.2 4.8-12.3 4.8-5.3.2-9.5-1.5-12.8-4.7zm18.3-6.3c1.4-1.5 2.1-3.5 2.1-6v-7.9h-7.8c-2.5 0-4.4.7-5.9 2.2-1.5 1.4-2.2 3.3-2.2 5.4 0 2.6.7 4.7 2.2 6.2 1.4 1.6 3.4 2.3 6 2.3 2.4.1 4.3-.7 5.6-2.2zM212 269.2v-12.3c0-2.7.6-5.3 1.9-7.6 1.3-2.3 3.1-4.2 5.4-5.8-2.3-1.5-4.1-3.4-5.4-5.6-1.3-2.2-1.9-4.7-1.9-7.5v-12.6c0-.9.5-1.4 1.5-1.4h6.4c.9 0 1.4.5 1.4 1.4v12.9c0 2.5.7 4.6 2.1 6.1 1.4 1.6 3.2 2.3 5.5 2.3 2.4 0 4.3-.8 5.6-2.3 1.4-1.6 2.1-3.6 2.1-6.1v-12.9c0-.9.5-1.4 1.4-1.4h6.4c.9 0 1.4.5 1.4 1.4v12.6c0 2.8-.6 5.4-1.8 7.6-1.2 2.2-3 4.1-5.3 5.5 2.3 1.5 4.1 3.4 5.3 5.7 1.2 2.3 1.8 4.8 1.8 7.7v12.3c0 1-.5 1.5-1.4 1.5H238c-.9 0-1.4-.5-1.4-1.5v-12.6c0-2.6-.7-4.7-2.1-6.2-1.4-1.6-3.3-2.3-5.6-2.3s-4.2.8-5.5 2.3c-1.4 1.6-2.1 3.6-2.1 6.2v12.6c0 1-.5 1.5-1.4 1.5h-6.4c-1 0-1.5-.5-1.5-1.5zM304.8 220.2c3 3.3 4.5 7.5 4.5 12.8v36.3c0 1-.5 1.5-1.4 1.5h-6.3c-1 0-1.5-.5-1.5-1.5v-36.6c0-2.6-.6-4.7-1.8-6.2-1.2-1.5-3-2.3-5.2-2.3s-4 .8-5.3 2.3c-1.3 1.5-1.9 3.6-1.9 6.2v36.6c0 1-.5 1.5-1.4 1.5h-6.3c-1 0-1.5-.5-1.5-1.5v-36.6c0-2.6-.6-4.7-1.8-6.2-1.2-1.5-3-2.3-5.2-2.3s-4 .8-5.3 2.3c-1.3 1.5-1.9 3.6-1.9 6.2v36.6c0 1-.5 1.5-1.5 1.5h-6.2c-1 0-1.5-.5-1.5-1.5V233c0-5.2 1.5-9.5 4.5-12.8 3-3.3 7-4.9 11.9-4.9 2.5 0 4.7.6 6.7 1.8 2 1.2 3.7 2.8 5 4.8 1.3-2 3-3.6 5-4.8 2-1.2 4.3-1.8 6.7-1.8 4.8-.1 8.8 1.6 11.7 4.9zM318.8 208c-1-1-1.6-2.4-1.6-4 0-1.7.5-3 1.6-4.1 1-1 2.4-1.6 4-1.6s2.9.5 4 1.6 1.6 2.4 1.6 4c0 1.4-.6 2.7-1.7 3.9-1.1 1.1-2.4 1.7-4 1.7-1.6.1-2.9-.4-3.9-1.5zm-.7 61.2v-51.3c0-.9.5-1.4 1.5-1.4h6.3c1 0 1.5.5 1.5 1.4v51.3c0 1-.5 1.5-1.5 1.5h-6.3c-1 0-1.5-.5-1.5-1.5zM399.7 266.9c-3.2-3.3-4.8-7.5-4.8-12.8v-21.3c0-5.2 1.6-9.5 4.8-12.8 3.2-3.3 7.4-4.9 12.6-4.9s9.4 1.6 12.6 4.9c3.2 3.3 4.8 7.5 4.8 12.8v21.3c0 5.2-1.6 9.5-4.8 12.8-3.2 3.3-7.4 4.9-12.6 4.9s-9.4-1.6-12.6-4.9zm18.4-6.1c1.4-1.6 2.2-3.6 2.2-6.2v-21.9c0-2.6-.7-4.7-2.2-6.2-1.4-1.6-3.4-2.3-5.9-2.3-2.5 0-4.4.8-5.8 2.3-1.4 1.6-2.1 3.6-2.1 6.2v21.9c0 2.6.7 4.7 2.1 6.2 1.4 1.6 3.3 2.3 5.8 2.3s4.5-.8 5.9-2.3zM461.8 217.8v5.6c0 .9-.5 1.4-1.4 1.4h-10.7v44.3c0 .5-.1.9-.4 1.1-.3.3-.7.4-1.1.4h-6.3c-1 0-1.5-.5-1.5-1.5v-44.3h-6.2c-.9 0-1.4-.5-1.4-1.4v-5.6c0-.9.5-1.4 1.4-1.4h6.2v-2.3c0-6.1 1.7-11 5.1-14.5 3.4-3.5 7.9-5.3 13.5-5.3.9 0 1.4.5 1.4 1.5v5.8c0 1-.5 1.5-1.4 1.5-3 0-5.2.9-6.8 2.7-1.6 1.8-2.4 4.4-2.4 7.9v2.8h10.7c.8-.1 1.3.4 1.3 1.3zM491 263.6v6c0 .9-.5 1.4-1.5 1.4h-1.6c-5.4 0-9.6-1.7-12.6-5.1-3-3.4-4.6-8.1-4.6-14.1v-26.9h-6.1c-.9 0-1.4-.5-1.4-1.4v-5.6c0-.9.5-1.4 1.4-1.4h6.1v-14c0-1 .5-1.5 1.5-1.5h6.3c.9 0 1.4.5 1.4 1.5v14h8.4c.9 0 1.4.5 1.4 1.4v5.6c0 .9-.5 1.4-1.4 1.4h-8.4v27c0 6.9 2.8 10.3 8.4 10.3h1.2c1 0 1.5.5 1.5 1.4z"/></g><g fill="#00ADB5"><path d="M348.4 167.1c.1 0 .2.1.2.2v-.1c0-.1-.1-.1-.2-.1zM349.9 168.9l.2.2c-.1-.1-.1-.2-.2-.2zM364.7 192.7c-.1-.1-.1-.3-.2-.4 0 .1 0 .2.2.4z"/><path d="M426.3 32.5l-.9-2.2c-.9-1.6-1.8-3.1-2.6-4.5-.9-1.4-1.8-2.8-2.6-4.3-1-1.5-2-2.9-3-4.3s-2-2.8-3.2-4.1c-.3-.3-.7-.8-1.3-1.7-.6-.8-1.2-1.2-1.8-1.2H389.5c-1.2-.9-2-1.5-2.4-2-.7-.4-1.4-.8-1.9-1.2-.5-.4-1-.7-1.4-.9s-.8-.3-.8-.1c.1.7.2 1.4.2 2.1v2.1H246.6c-.3 0-.1.7.4 2.2.3.6.7 1.3 1.1 2 .7 1.5 1.5 2.9 2.4 4.4.9 1.5 1.8 2.9 2.9 4.4 1.6 2.6 3.6 5.4 6 8.2.3.3.8.9 1.4 1.8s1.3 1.3 1.9 1.3h23.8c-5 2.5-9.8 5.2-14.5 7.9-4.6 2.8-9.2 5.8-13.8 9.1-.7.6-1.5 1.1-2.2 1.7-.7.5-1.5 1.1-2.2 1.7-.1.1-.1.4.1.9s.5.9.8 1.3c.3.4.6.8.8 1.2.2.4.3.5.3.3 2.2 3.1 4.3 5.8 6.4 8.2 1.2 1.3 2.3 2.6 3.4 4 1.1 1.3 2.2 2.6 3.4 3.8.1.3.7.9 1.7 1.8s1.6 1.2 1.9.9c4.4-3.4 8.9-6.5 13.6-9.5 4.6-2.9 9.4-5.7 14.2-8.4 4.7-2.5 9.6-4.8 14.7-7 5.1-2.1 10.2-4 15.3-5.6 2.2-.7 4.4-1.3 6.6-1.7 2.2-.4 4.5-.5 6.8-.3-.9 4.3-2.6 8.2-5.3 11.7-2.1 2.6-4.4 5-7.1 7.1-2.6 2.1-5.4 4-8.2 5.7-6.6 4.3-13.3 8.5-20 12.7-6.7 4.2-13.4 8.4-20.2 12.7L260.1 109c-.1.1-.1.4.1.9s.5.9.8 1.3c.3.4.7 1 1.1 1.8.9 1.5 1.8 2.9 2.9 4.2 1 1.3 2.1 2.6 3.3 4 1.2 1.3 2.3 2.6 3.4 3.9 1.1 1.3 2.3 2.5 3.6 3.6l.8.8.8.8c.4.7 1.1 1.1 2 1.1 2.8-.7 5.6-1.1 8.5-1 2.9.1 5.7.5 8.5 1.2 4.7 1.2 9.2 2.9 13.5 5.2 4.3 2.3 8.4 4.7 12.4 7.4 1 .7 2 1.4 2.9 2 .9.6 1.8 1.3 2.6 2 .1 0 .2 0 .2.1s.1.1.2.1c.3.1.5.3.7.4.1.1.4.3.7.4.4.4.9.8 1.3 1.2.4.4 1 .8 1.5 1.2.7.7 1.5 1.4 2.4 2.1s1.8 1.4 2.6 2.1c.6.4 1.4 1.2 2.4 2.2.3.1.5.3.6.4 0 .1.1.1.2.2-.1 0-.2-.1-.3-.2l.7.7v-.2l.2.2c.7.7 1.5 1.5 2.4 2.3.9.8 1.7 1.6 2.4 2.3 0 .1.1.4.4.7l.9.9.9.9c.1.3.3.5.4.6 0 0 .1 0 .1.1.1.1.1.2.1.3h.2v.1c.1 0 .1.1.1.2l.3.3.1.1.2.2c0 .1 0 .2.1.2s.1.1.1.2l.2.2-.2-.4.2.2v.1c0 .1.1.2.2.3l.2.2c.1.1.1.2.3.3-.1-.2-.3-.3-.4-.5.2.2.3.4.5.5 0 .1 0 .1.1.1l.1.1v.1c.2.2.4.4.6.7-.1-.1-.1-.2-.2-.3 0 0 0 .1.1.1.3.3.5.6.6.8.3.4.5.7.8.9.3.6.5 1 .7 1.1.3.4.6.9 1 1.4.4.5.7 1 1 1.4.3.6.6 1 .9 1.3.4 1 1 2 1.8 2.9.6 1 1.1 2 1.7 3 .5 1 1.1 1.9 1.9 3 .3.6.6 1.1.9 1.7.3.5.6 1.1.9 1.7.1.3.3.6.4.9.1.3.3.6.4.9.1.1.2.3.2.3 0 .1.1.2.2.3 0 .1 0 .3.1.3.1.1.1.2.1.3.5 1.1 1.1 2.3 1.6 3.6l.9 1.8.9 1.8c2.1 5.6 3.3 11 3.8 16.1.3 4.7-.4 9.3-2 13.8s-4.3 8.2-8.2 11.1c-.1.1-.1.4 0 .9.1.4.4.9.7 1.3.3.4.7 1 1.3 1.8.9 1.5 1.8 2.9 2.9 4.2 1 1.3 2.1 2.6 3.3 4 1.2 1.3 2.3 2.6 3.4 4 1.1 1.3 2.3 2.6 3.6 3.8.3.3.9.8 1.8 1.7.9.8 1.5 1.1 1.8.8 2.5-1.9 4.5-4.2 6-6.7 1.5-2.6 2.5-5.3 3.2-8.3.7-2.9 1-6 .9-9-.1-3.1-.4-6.1-1-9-.7-3.7-1.9-7.2-3.4-10.5s-3.1-6.7-4.7-10c-3.4-6.3-7-12.4-10.8-18.1-5.2-7.9-10.8-15.6-16.9-22.8-6.1-7.3-12.5-14.3-19.1-21.1-4.9-4.9-9.9-9.5-15.2-13.9-5.3-4.4-10.8-8.5-16.6-12.4-1.2-1-2.4-1.8-3.8-2.4 3.7-2.4 7.4-4.7 11-7 3.7-2.3 7.4-4.6 11-7 3.4-2.2 6.8-4.4 10.2-6.5l10.2-6.3c1.9-1.2 3.8-2.4 5.6-3.8 1.8-1.3 3.6-2.7 5.2-4.2.3.3.6.6 1 .8.4.2.7.4 1 .6 2.9 1.8 6.1 3.1 9.6 3.9 3.5.8 7 1.1 10.5 1 3.5-.1 7-.7 10.3-1.8-.2 2.6-.4 5.2-.8 7.7-.3 1.9-.7 3.9-1.2 6s-1.2 4-2.2 5.8c-1 1.8-2.2 3.4-3.6 4.7-1.5 1.3-3.3 2.2-5.5 2.6-.1 0-.1.2.2.7.3.4.6.9.9 1.3.3.4.7 1 1.3 1.8 1.2 1.3 2.4 2.6 3.5 3.8l3.5 3.5c2.1 2.2 4.3 4.3 6.8 6.2l16.6 17.9.9-.9-12.8-14.1h.2c3.1-.6 5.5-2.1 7.2-4.5 1.7-2.4 3-5 3.9-7.8 1.2-3.8 1.8-7.7 2-11.6.1-3.9.2-7.8.2-11.6 0-3.4-.1-6.8-.3-10.4-.2-3.5-.4-7-.6-10.4-.1-3.5-.2-7.1-.1-10.6s.1-7.1.1-10.6c-.1-4-.2-7.9-.1-11.8.1-3.9 0-7.8-.1-11.8H427c0-.1-.1-.7-.7-2zm-42.8 22.7c-.5-.4-.8-.5-.9-.3-2.4 3.2-5.3 5.8-8.8 7.8-3.5 2-7.3 3.4-11.3 4.3.3-1 .4-2 .4-3v-3c-.1-3.2-1.2-6.5-3.1-9.7-1.6-2.8-3.5-5.4-5.5-7.9-2.1-2.5-4.2-5-6.4-7.5-.3-.3-.5-.6-.7-.8-.1-.2-.4-.5-.7-.8h36.9v20.1c.1.4.1.6.1.8z"/><path d="M351.4 170.6c.3.4.4.6.4.6 0-.1-.1-.1-.1-.2-.1-.1-.2-.2-.3-.4z"/></g><path fill="#00ADB5" d="M257.2 44.5c-.2-.7-.5-1.5-.9-2.3-.4-.8-.8-1.9-1.2-3.3-3.1-5.2-6-9.9-8.8-14.1-1.4-2.3-2.9-4.6-4.4-6.7-1.5-2.1-3.2-4.3-5.1-6.7-.5-.5-1.2-1.3-2.1-2.6-.9-1.3-2-1.9-3.2-1.9h-40.2c-1.9-1.4-3.2-2.5-3.9-3.2-1.2-.7-2.2-1.3-3-1.9-.8-.6-1.6-1.1-2.3-1.4-.7-.4-1.1-.5-1.1-.3.2 1.2.4 2.3.4 3.3v3.3H.2c-.4.1-.2 1.3.7 3.7.5.9 1.1 2 1.8 3.2 1.2 2.4 2.5 4.7 3.9 7 1.4 2.4 2.9 4.7 4.6 7 2.6 4.2 5.8 8.6 9.5 13 .5.5 1.2 1.4 2.3 2.8s2.1 2.1 3 2.1h155.8v25c-4-.2-7.7.4-11.1 1.9-3.4 1.5-6.8 3.3-10 5.5-1.9 1.2-3.7 2.5-5.5 4.1-1.8 1.5-3.6 3.1-5.5 4.8l-4.2-4.8c-1.4-1.5-2.8-3-4.2-4.4-1.6-1.6-3.3-3.2-4.9-4.6-1.6-1.4-3.4-2.7-5.3-3.9-2.6-1.6-5.3-2.9-8.3-3.9-2.9-.9-5.9-1.6-9-2.1-3.3-.7-6.5-1.2-9.7-1.4-3.2-.2-6.4-.5-9.7-.7-3.1 0-6 .1-8.8.4-2.8.2-5.6.6-8.5 1.1-3.3.5-6.3 1.2-9.2 2.3-2.8 1.1-5.6 2.2-8.5 3.3C45.1 74 34.1 83.3 26.3 96c-4 6.8-6.7 14-8.1 21.5-1.4 7.5-1.9 15.2-1.4 22.9.5 5.2 1.4 10.1 2.8 14.8 1.4 4.7 3.1 9.4 4.9 14.1 2.1 4.7 4.3 9.4 6.5 14.1 2.2 4.7 4.5 9.4 6.9 14.1 4.5 8.5 9.6 16.5 15.3 24.1 5.8 7.6 11.8 15 18.2 22 4.2 4.7 8.8 9 13.6 13 4.8 4 10.3 7.2 16.4 9.5 9.2 3.3 18.3 4.2 27.5 2.8l-1.4-3.2c-.7-.9-1.3-2-1.8-3.2-3.3-4.7-6.6-9-9.9-13-1.9-2.1-3.7-4.2-5.5-6.3-1.8-2.1-3.6-4.1-5.5-6-.5-.5-1.3-1.4-2.5-2.6-1.2-1.3-2.2-1.8-3.2-1.6-6.8.7-13.6.4-20.4-1.1-2.4-.7-4.5-1.4-6.5-2.1-2-.7-4.1-1.6-6.2-2.8-.2-.2-.5-.4-.7-.5-.2-.1-.5-.3-.7-.5-.5-.5-.7-.9-.7-1.4l-.7-1.4c-.5-.7-.9-1.8-1.4-3.2-.5-1.2-1-2.3-1.6-3.3-.6-1.1-1.1-2.2-1.6-3.3-1.2-2.1-2.2-4.2-3.2-6.3-.9-2.1-1.9-4.3-2.8-6.7-1.9-4.5-3.4-9-4.6-13.6-1.2-4.6-1.9-9.2-2.1-13.9-.5-7.5.2-14.9 1.9-22.2 1.8-7.3 4.6-14.1 8.6-20.4 4-6.1 9-11.5 15.2-16 6.1-4.6 12.6-8.3 19.4-11.1 4.2-1.6 8.5-2.9 12.7-3.9 4.2-.9 8.6-1.5 13-1.8 7-.2 14.1.1 21.1 1.1 0 .2-.1.5-.4.7L125.8 113c-3.3 4-6.3 8-9.2 12-2.8 4-5.4 8.2-7.8 12.7-1.9 3.8-3.4 8.2-4.6 13.4-.2.9.1 2.1 1.1 3.3.9 1.3 1.6 2.3 2.1 3 1.4 2.4 2.9 4.6 4.6 6.7 1.6 2.1 3.4 4.2 5.3 6.3.2.2 1.1 1.4 2.6 3.3 1.5 2 3.2 4.1 5.1 6.2 1.9 2.1 3.6 3.9 5.3 5.5 1.6 1.5 2.7 2.1 3.2 1.6 3.3-4 6.3-8 9.2-12.2 2.8-4.1 5.5-8.4 8.1-12.9 1.4-2.1 2.8-4.3 4.1-6.5 1.3-2.2 2.6-4.4 4.1-6.5s2.8-4.2 4.1-6.3c1.3-2.1 2.5-4.3 3.7-6.7 0-.2.1-.5.4-.7 1.9-2.3 3.9-4.6 6-6.9 2.1-2.2 4.3-4.4 6.7-6.5 1.2-1 2.4-2 3.7-3v6.7c-.1 6.5-.6 12.7-1.6 18.9-.5 3.1-1.1 6.2-1.9 9.5-.8 3.3-2 6.4-3.5 9.3-1.5 2.9-3.5 5.5-5.8 7.6-2.3 2.1-5.3 3.5-8.8 4.2-.2 0-.1.4.4 1.1.5.7.9 1.4 1.4 2.1.5.7 1.2 1.6 2.1 2.8 1.9 2.1 3.8 4.1 5.6 6l5.6 5.6c3.3 3.5 6.9 6.8 10.9 9.9l26.4 28.5 1.4-1.4-20.3-22.6h.4c4.9-.9 8.8-3.3 11.5-7.2 2.7-3.9 4.8-8 6.2-12.5 1.9-6.1 2.9-12.3 3.2-18.5.2-6.2.4-12.4.4-18.5 0-5.4-.2-10.9-.5-16.6s-.6-11.2-.9-16.6c-.2-5.6-.3-11.3-.2-16.9.1-5.6.2-11.3.2-16.9-.2-6.3-.3-12.6-.2-18.9.1-6.2.1-12.5-.2-18.9h41.9c.1.1.1-.2-.1-1zM138.9 79.1c-.1-.2.1 0 .5.7-.2-.2-.4-.5-.5-.7z"/></svg>