<svg version="1.1" id="Layer_1" xmlns="http://www.w3.org/2000/svg" x="0" y="0" viewBox="0 0 108.4 60" xml:space="preserve"><style>.st0{fill:#393e46}.st1{fill:#00adb5}</style><path class="st0" d="M38.9 58.9c-.7-.7-1.1-1.7-1.1-2.8 0-.7.2-1.3.5-1.8s.8-.9 1.3-1.3c.6-.3 1.2-.5 2-.5h1.8v-1.3c0-.6-.2-1-.5-1.3-.3-.3-.7-.5-1.3-.5-.5 0-.9.2-1.2.4s-.4.8-.4 1.3c0 .1 0 .2-.1.2 0 0-.1.1-.2.1h-1.4c-.1 0-.2 0-.2-.1-.1-.1-.1-.2-.1-.2.1-1.1.4-1.9 1.1-2.6.7-.7 1.5-1 2.6-1s2 .4 2.7 1.1c.7.7 1 1.7 1 2.8v4.8c0 1.1-.3 2-1 2.7-.7.7-1.6 1.1-2.7 1.1-1.2 0-2.1-.4-2.8-1.1zm4-1.4c.3-.3.5-.8.5-1.3v-1.7h-1.7c-.6 0-1 .2-1.3.5-.3.3-.5.7-.5 1.2 0 .6.2 1 .5 1.4.3.4.8.5 1.3.5.5-.1.9-.2 1.2-.6zM46.8 59.4v-2.7c0-.6.1-1.2.4-1.7.3-.5.7-.9 1.2-1.3-.5-.3-.9-.8-1.2-1.2-.3-.5-.4-1-.4-1.7V48c0-.2.1-.3.3-.3h1.4c.2 0 .3.1.3.3v2.8c0 .6.2 1 .5 1.3.3.4.7.5 1.2.5s.9-.2 1.2-.5c.3-.4.5-.8.5-1.3V48c0-.2.1-.3.3-.3H54c.2 0 .3.1.3.3v2.8c0 .6-.1 1.2-.4 1.7-.3.5-.7.9-1.2 1.2.5.3.9.8 1.2 1.3s.4 1.1.4 1.7v2.7c0 .2-.1.3-.3.3h-1.4c-.2 0-.3-.1-.3-.3v-2.8c0-.6-.2-1-.5-1.4-.3-.4-.7-.5-1.2-.5s-.9.2-1.2.5c-.3.4-.5.8-.5 1.4v2.8c0 .2-.1.3-.3.3h-1.4c-.3.1-.4-.1-.4-.3zM67.3 48.6c.7.7 1 1.7 1 2.8v8c0 .2-.1.3-.3.3h-1.4c-.2 0-.3-.1-.3-.3v-8.1c0-.6-.1-1-.4-1.4-.3-.3-.7-.5-1.1-.5-.5 0-.9.2-1.2.5-.3.3-.4.8-.4 1.4v8.1c0 .2-.1.3-.3.3h-1.4c-.2 0-.3-.1-.3-.3v-8.1c0-.6-.1-1-.4-1.4-.3-.3-.7-.5-1.1-.5-.5 0-.9.2-1.2.5-.3.3-.4.8-.4 1.4v8.1c0 .2-.1.3-.3.3h-1.4c-.2 0-.3-.1-.3-.3v-8c0-1.1.3-2.1 1-2.8s1.5-1.1 2.6-1.1c.6 0 1 .1 1.5.4s.8.6 1.1 1.1c.3-.4.7-.8 1.1-1.1s.9-.4 1.5-.4c.9 0 1.7.4 2.4 1.1zM70.4 45.9c-.2-.2-.4-.5-.4-.9s.1-.7.4-.9c.2-.2.5-.4.9-.4s.6.1.9.4c.2.2.4.5.4.9 0 .3-.1.6-.4.9-.2.2-.5.4-.9.4s-.7-.1-.9-.4zm-.2 13.5V48.1c0-.2.1-.3.3-.3h1.4c.2 0 .3.1.3.3v11.3c0 .2-.1.3-.3.3h-1.4c-.2.1-.3-.1-.3-.3zM88.2 58.9c-.7-.7-1.1-1.7-1.1-2.8v-4.7c0-1.1.4-2.1 1.1-2.8s1.6-1.1 2.8-1.1c1.1 0 2.1.4 2.8 1.1.7.7 1.1 1.7 1.1 2.8v4.7c0 1.1-.4 2.1-1.1 2.8-.7.7-1.6 1.1-2.8 1.1-1.1 0-2.1-.4-2.8-1.1zm4.1-1.3c.3-.4.5-.8.5-1.4v-4.8c0-.6-.2-1-.5-1.4-.3-.4-.8-.5-1.3-.5-.6 0-1 .2-1.3.5-.3.4-.5.8-.5 1.4v4.8c0 .6.2 1 .5 1.4.3.4.7.5 1.3.5.5 0 1-.2 1.3-.5zM101.9 48.1v1.2c0 .2-.1.3-.3.3h-2.4v9.8c0 .1 0 .2-.1.2-.1.1-.2.1-.2.1h-1.4c-.2 0-.3-.1-.3-.3v-9.8h-1.4c-.2 0-.3-.1-.3-.3v-1.2c0-.2.1-.3.3-.3h1.4v-.5c0-1.3.4-2.4 1.1-3.2s1.7-1.2 3-1.2c.2 0 .3.1.3.3v1.3c0 .2-.1.3-.3.3-.7 0-1.1.2-1.5.6-.4.4-.5 1-.5 1.7v.6h2.4c.1.1.2.2.2.4zM108.4 58.2v1.3c0 .2-.1.3-.3.3h-.4c-1.2 0-2.1-.4-2.8-1.1-.7-.8-1-1.8-1-3.1v-5.9h-1.3c-.2 0-.3-.1-.3-.3v-1.2c0-.2.1-.3.3-.3h1.3v-3.1c0-.2.1-.3.3-.3h1.4c.2 0 .3.1.3.3v3.1h1.9c.2 0 .3.1.3.3v1.2c0 .2-.1.3-.3.3h-1.9v6c0 1.5.6 2.3 1.9 2.3h.3c.2-.1.3 0 .3.2z"/><g><path class="st1" d="M76.9 36.9s.1 0 0 0c.1 0 0 0 0 0zM77.2 37.3c.1 0 .1 0 0 0zM80.5 42.5zM94.1 7.2l-.2-.5c-.2-.4-.4-.7-.6-1l-.6-.9c-.2-.3-.4-.6-.7-.9-.2-.3-.4-.6-.7-.9-.1-.1-.2-.2-.3-.4-.1-.2-.3-.3-.4-.3H86c-.3-.2-.4-.3-.5-.4-.2-.1-.3-.2-.4-.3-.1-.1-.2-.2-.3-.2-.1 0-.2-.1-.2 0v1H54.4c-.1 0 0 .2.1.5.1.1.2.3.2.4.2.3.3.6.5 1s.4.6.6 1c.4.6.8 1.2 1.3 1.8.1.1.2.2.3.4.1.2.3.3.4.3h5.3c-1.1.6-2.2 1.1-3.2 1.7-1 .6-2 1.3-3 2-.2.1-.3.2-.5.4-.2.1-.3.2-.5.4v.2c0 .1.1.2.2.3.1.1.1.2.2.3 0 .1.1.1.1.1.5.7.9 1.3 1.4 1.8.3.3.5.6.8.9.2.3.5.6.8.8 0 .1.2.2.4.4s.4.3.4.2c1-.8 2-1.4 3-2.1 1-.6 2.1-1.3 3.1-1.9 1-.6 2.1-1.1 3.2-1.5 1.1-.5 2.3-.9 3.4-1.2.5-.2 1-.3 1.5-.4.5-.1 1-.1 1.5-.1-.2.9-.6 1.8-1.2 2.6-.5.6-1 1.1-1.6 1.6-.6.5-1.2.9-1.8 1.3-1.5.9-2.9 1.9-4.4 2.8-1.5.9-3 1.9-4.5 2.8l-5.1 3.2v.2c0 .1.1.2.2.3.1.1.2.2.2.4l.6.9c.2.3.5.6.7.9.3.3.5.6.8.9.2.3.5.6.8.8l.2.2.2.2c.1.2.2.2.4.2.6-.2 1.2-.2 1.9-.2s1.3.1 1.9.3c1 .3 2 .6 3 1.1.9.5 1.9 1 2.7 1.6.2.2.4.3.6.4.2.1.4.3.6.4.1 0 .1.1.2.1 0 0 .1.1.2.1l.3.3.3.3.5.5c.2.2.4.3.6.5l.5.5c.1 0 .1.1.1.1h-.1l.2.2.5.5.5.5s0 .1.1.2l.2.2.2.2c0 .1.1.1.1.1v.1l.5-.4v-.1.1l.1.1-.1-.1.1.1s.1.1.1.2v-.1c.1.1.1.1.1.2.1.1.1.2.2.2.1.1.1.2.2.2.1.1.1.2.2.3.1.1.2.2.2.3.1.1.1.2.2.3.1.2.2.4.4.6.1.2.2.4.4.7.1.2.2.4.4.7.1.1.1.2.2.4.1.1.1.2.2.4 0 .1.1.1.1.2s.1.1.1.2v.4c.1.2.2.5.4.8.1.1.1.3.2.4.1.1.1.3.2.4.5 1.2.7 2.4.8 3.6.1 1-.1 2.1-.4 3-.4 1-.9 1.8-1.8 2.5v.2c0 .1.1.2.2.3.1.1.2.2.3.4l.6.9c.2.3.5.6.7.9.3.3.5.6.8.9.2.3.5.6.8.8l.4.4c.2.2.3.2.4.2.6-.4 1-.9 1.3-1.5.3-.6.6-1.2.7-1.8.2-.6.2-1.3.2-2s-.1-1.3-.2-2c-.2-.8-.4-1.6-.8-2.3-.3-.7-.7-1.5-1-2.2-.8-1.4-1.5-2.7-2.4-4-1.1-1.7-2.4-3.4-3.7-5-1.3-1.6-2.8-3.2-4.2-4.7-1.1-1.1-2.2-2.1-3.4-3.1-1.2-1-2.4-1.9-3.7-2.7-.3-.2-.5-.4-.8-.5l2.4-1.5 2.4-1.5c.8-.5 1.5-1 2.3-1.4.8-.5 1.5-.9 2.3-1.4.4-.3.8-.5 1.2-.8.4-.3.8-.6 1.1-.9l.2.2c.1.1.2.1.2.1.6.4 1.3.7 2.1.9.8.2 1.5.2 2.3.2s1.5-.2 2.3-.4c0 .6-.1 1.1-.2 1.7-.1.4-.2.9-.3 1.3-.1.5-.3.9-.5 1.3s-.5.8-.8 1c-.3.3-.7.5-1.2.6v.2c.1.1.1.2.2.3s.2.2.3.4c.3.3.5.6.8.8l.8.8c.5.5.9.9 1.5 1.4l3.7 4 .2-.2-2.8-3.1c.7-.1 1.2-.5 1.6-1 .4-.5.7-1.1.9-1.7.3-.8.4-1.7.4-2.6v-2.6c0-.8 0-1.5-.1-2.3 0-.8-.1-1.5-.1-2.3v-2.3-2.3-2.6-2.6h5.3c.1-.3 0-.4-.1-.7zm-9.4 5c-.1-.1-.2-.1-.2-.1-.5.7-1.2 1.3-1.9 1.7s-1.6.8-2.5.9c.1-.2.1-.4.1-.7v-.7c0-.7-.3-1.4-.7-2.1-.4-.6-.8-1.2-1.2-1.7-.5-.6-.9-1.1-1.4-1.7l-.2-.2-.2-.2H84.6V12c.1.1.1.1.1.2z"/><path class="st1" d="M77.6 37.7l.1.1s-.1 0-.1-.1z"/></g><path class="st1" d="M56.8 9.8c0-.2-.1-.3-.2-.5s-.2-.4-.3-.7c-.7-1.1-1.3-2.2-1.9-3.1-.3-.5-.6-1-1-1.5-.3-.5-.7-.9-1.1-1.5-.1-.1-.3-.3-.5-.6s-.4-.4-.7-.4h-8.9c-.4-.3-.7-.6-.9-.7-.3-.2-.5-.3-.7-.4s-.4-.2-.5-.3L40 0v1.5H0s0 .3.2.8c.1.2.2.4.4.7l.9 1.5c.3.5.6 1 1 1.5.5 1 1.3 2 2.1 3 .1.1.3.3.5.6s.4.4.6.4h34.4v5.5c-.9 0-1.7.1-2.5.4-.8.3-1.5.7-2.2 1.2l-1.2.9c-.4.3-.8.7-1.2 1.1-.3-.4-.6-.7-.9-1.1-.3-.3-.6-.7-.9-1-.4-.4-.7-.7-1.1-1l-1.2-.9c-.6-.4-1.2-.6-1.8-.9-.6-.2-1.3-.4-2-.5-.7-.2-1.4-.3-2.1-.3s-1.4-.1-2.1-.2c-.7 0-1.3 0-1.9.1-.6 0-1.2.1-1.9.2s-1.4.3-2 .5c-.6.2-1.2.5-1.9.7-3.2 1.3-5.6 3.4-7.3 6.2-.9 1.5-1.5 3.1-1.8 4.7s-.5 3.7-.4 5.4c.1 1.1.3 2.2.6 3.3.3 1 .7 2.1 1.1 3.1.5 1 .9 2.1 1.4 3.1.5 1 1 2.1 1.5 3.1 1 1.9 2.1 3.6 3.4 5.3 1.3 1.7 2.6 3.3 4 4.9.9 1 1.9 2 3 2.9 1.1.9 2.3 1.6 3.6 2.1 2 .7 4 .9 6.1.6l-.3-.7c-.2-.2-.3-.4-.4-.7-.7-1-1.5-2-2.2-2.9-.4-.5-.8-.9-1.2-1.4-.4-.5-.8-.9-1.2-1.3l-.6-.6c-.3-.3-.5-.4-.7-.4-1.5.2-3 .1-4.5-.2-.5-.2-1-.3-1.4-.5-.4-.2-.9-.4-1.4-.6 0 0-.1-.1-.2-.1 0 0-.1-.1-.2-.1-.1-.1-.2-.2-.2-.3l.1-.3c-.1-.2-.2-.4-.3-.7-.1-.3-.2-.5-.4-.7-.1-.2-.2-.5-.4-.7-.3-.5-.5-.9-.7-1.4-.2-.5-.4-.9-.6-1.5-.4-1-.8-2-1-3-.3-1-.4-2-.5-3.1-.1-1.7 0-3.3.4-4.9.4-1.6 1-3.1 1.9-4.5.9-1.3 2-2.5 3.4-3.5 1.3-1 2.8-1.8 4.3-2.5.9-.4 1.9-.6 2.8-.9.9-.2 1.9-.3 2.9-.4 1.5 0 3.1 0 4.7.2 0 0 0 .1-.1.2l-2.6 3c-.7.9-1.4 1.8-2 2.6-.6.9-1.2 1.8-1.7 2.8-.4.8-.8 1.8-1 3 0 .2 0 .5.2.7.2.3.4.5.5.7.3.5.6 1 1 1.5s.8.9 1.2 1.4c0 0 .2.3.6.7.3.4.7.9 1.1 1.4.4.5.8.9 1.2 1.2.4.3.6.5.7.4.7-.9 1.4-1.8 2-2.7.6-.9 1.2-1.9 1.8-2.8.3-.5.6-.9.9-1.4.3-.5.6-1 .9-1.4.3-.5.6-.9.9-1.4.3-.5.6-.9.8-1.5 0 0 0-.1.1-.2.4-.5.9-1 1.3-1.5.5-.5.9-1 1.5-1.4.3-.2.5-.4.8-.7v1.5c0 1.4-.1 2.8-.4 4.2-.1.7-.2 1.4-.4 2.1-.2.7-.4 1.4-.8 2.1-.3.6-.8 1.2-1.3 1.7s-1.2.8-1.9.9c0 0 0 .1.1.2.1.2.2.3.3.5.1.2.3.4.5.6.4.5.8.9 1.2 1.3l1.2 1.2c.7.8 1.5 1.5 2.4 2.2l5.8 6.3.3-.3-4.5-5h.1c1.1-.2 1.9-.7 2.5-1.6s1.1-1.8 1.4-2.8c.4-1.3.6-2.7.7-4.1 0-1.4.1-2.7.1-4.1 0-1.2 0-2.4-.1-3.7-.1-1.3-.1-2.5-.2-3.7 0-1.2-.1-2.5 0-3.7v-3.7c0-1.4-.1-2.8 0-4.2V10H56.8v-.2zm-26.1 7.7l.1.2c-.1-.1-.1-.2-.1-.2z"/></svg>